{
  "accessors": [
    {
      "bufferView": 2,
      "componentType": 5126,
      "count": 2204,
      "max": [
        346.4830322265625,
        355.0379638671875,
        350.79437255859375
      ],
      "min": [
        -355.105712890625,
        -346.55078125,
        -350.79437255859375
      ],
      "type": "VEC3"
    },
    {
      "bufferView": 2,
      "byteOffset": 26448,
      "componentType": 5126,
      "count": 2204,
      "max": [
        0.99885427951812744,
        0.99849545955657959,
        0.99879258871078491
      ],
      "min": [
        -0.99885404109954834,
        -0.99885404109954834,
        -0.99879264831542969
      ],
      "type": "VEC3"
    },
    {
      "bufferView": 3,
      "componentType": 5126,
      "count": 2204,
      "max": [
        1,
        1,
        1,
        1
      ],
      "min": [
        1,
        1,
        1,
        1
      ],
      "type": "VEC4"
    },
    {
      "bufferView": 1,
      "componentType": 5126,
      "count": 2204,
      "max": [
        0.99999940395355225,
        1
      ],
      "min": [
        0,
        -2.384185791015625e-07
      ],
      "type": "VEC2"
    },
    {
      "bufferView": 3,
      "byteOffset": 35264,
      "componentType": 5126,
      "count": 2204,
      "max": [
        0.99995905160903931,
        0.99995905160903931,
        0.015900826081633568,
        1
      ],
      "min": [
        -0.99879556894302368,
        -0.99995905160903931,
        -0.01467262115329504,
        1
      ],
      "type": "VEC4"
    },
    {
      "bufferView": 0,
      "componentType": 5125,
      "count": 11904,
      "max": [
        2203
      ],
      "min": [
        0
      ],
      "type": "SCALAR"
    },
    {
      "bufferView": 2,
      "byteOffset": 52896,
      "componentType": 5126,
      "count": 2204,
      "max": [
        336.48086547851562,
        345.14337158203125,
        340.8997802734375
      ],
      "min": [
        -345.31869506835938,
        -336.65618896484375,
        -340.8997802734375
      ],
      "type": "VEC3"
    },
    {
      "bufferView": 2,
      "byteOffset": 79344,
      "componentType": 5126,
      "count": 2204,
      "max": [
        0.99885416030883789,
        0.99849539995193481,
        0.99879258871078491
      ],
      "min": [
        -0.99885404109954834,
        -0.99885404109954834,
        -0.99879264831542969
      ],
      "type": "VEC3"
    },
    {
      "bufferView": 3,
      "byteOffset": 70528,
      "componentType": 5126,
      "count": 2204,
      "max": [
        1,
        1,
        1,
        1
      ],
      "min": [
        1,
        1,
        1,
        1
      ],
      "type": "VEC4"
    },
    {
      "bufferView": 3,
      "byteOffset": 105792,
      "componentType": 5126,
      "count": 2204,
      "max": [
        0.99995905160903931,
        0.99995911121368408,
        0.015900872647762299,
        1
      ],
      "min": [
        -0.99879556894302368,
        -0.99995911121368408,
        -0.014672594144940376,
        1
      ],
      "type": "VEC4"
    },
    {
      "bufferView": 0,
      "byteOffset": 47616,
      "componentType": 5125,
      "count": 11904,
      "max": [
        2203
      ],
      "min": [
        0
      ],
      "type": "SCALAR"
    }
  ],
  "asset": {
    "generator": "Sketchfab (OSG glTF plugin)",
    "version": "2.0"
  },
  "bufferViews": [
    {
      "buffer": 0,
      "byteLength": 95232,
      "byteOffset": 0,
      "name": "ScalarBufferView",
      "target": 34963
    },
    {
      "buffer": 0,
      "byteLength": 17632,
      "byteOffset": 95232,
      "byteStride": 8,
      "name": "Vec3BufferView",
      "target": 34962
    },
    {
      "buffer": 0,
      "byteLength": 105792,
      "byteOffset": 112864,
      "byteStride": 12,
      "name": "Vec4BufferView",
      "target": 34962
    },
    {
      "buffer": 0,
      "byteLength": 141056,
      "byteOffset": 218656,
      "byteStride": 16,
      "name": "MatrixBufferView",
      "target": 34962
    }
  ],
  "buffers": [
    {
      "byteLength": 359712,
      "uri": "scene.bin"
    }
  ],
  "images": [
    {
      "uri": "textures/02%20-%20Default_baseColor.jpeg"
    },
    {
      "uri": "textures/02%20-%20Default_normal.png"
    },
    {
      "uri": "textures/02%20-%20Default_metallicRoughness.png"
    },
    {
      "uri": "textures/02%20-%20Default_emissive.jpeg"
    }
  ],
  "materials": [
    {
      "doubleSided": true,
      "emissiveFactor": [
        0,
        0,
        0
      ],
      "name": "01 - Default",
      "pbrMetallicRoughness": {
        "baseColorFactor": [
          0,
          0,
          0,
          1
        ],
        "metallicFactor": 0,
        "roughnessFactor": 0.59999999999999998
      }
    },
    {
      "doubleSided": false,
      "emissiveFactor": [
        0.62690548779999999,
        0.62690548779999999,
        0.62690548779999999
      ],
      "emissiveTexture": {
        "index": 3,
        "texCoord": 0
      },
      "name": "02 - Default",
      "normalTexture": {
        "index": 1,
        "scale": 1,
        "texCoord": 0
      },
      "pbrMetallicRoughness": {
        "baseColorFactor": [
          1,
          1,
          1,
          1
        ],
        "baseColorTexture": {
          "index": 0,
          "texCoord": 0
        },
        "metallicFactor": 0,
        "metallicRoughnessTexture": {
          "index": 2,
          "texCoord": 0
        },
        "roughnessFactor": 0.46512957319999998
      }
    }
  ],
  "meshes": [
    {
      "name": "Sphere002",
      "primitives": [
        {
          "attributes": {
            "COLOR_0": 2,
            "NORMAL": 1,
            "POSITION": 0,
            "TANGENT": 4,
            "TEXCOORD_0": 3
          },
          "indices": 5,
          "material": 1,
          "mode": 4
        }
      ]
    },
    {
      "name": "Sphere001",
      "primitives": [
        {
          "attributes": {
            "COLOR_0": 8,
            "NORMAL": 7,
            "POSITION": 6,
            "TANGENT": 9
          },
          "indices": 10,
          "material": 0,
          "mode": 4
        }
      ]
    }
  ],
  "nodes": [
    {
      "children": [
        1
      ],
      "name": "RootNode (gltf orientation matrix)",
      "rotation": [
        -0.70710678118654746,
        -0,
        -0,
        0.70710678118654757
      ]
    },
    {
      "children": [
        2
      ],
      "name": "RootNode (model correction matrix)"
    },
    {
      "children": [
        3,
        6
      ],
      "name": "earth.3DS"
    },
    {
      "children": [
        4
      ],
      "matrix": [
        1.0290249586105347,
        0,
        0,
        0,
        0,
        1.0290249586105347,
        0,
        0,
        0,
        0,
        1.0290249586105347,
        0,
        -4.31134033203125,
        4.2435894012451172,
        0,
        1
      ],
      "name": "Sphere002"
    },
    {
      "children": [
        5
      ],
      "matrix": [
        0.97179372728750313,
        0,
        0,
        0,
        0,
        0.97179372728750313,
        0,
        0,
        0,
        0,
        0.97179372728750313,
        0,
        4.1897334908695898,
        -4.1238935613137357,
        -0,
        1
      ],
      "name": "3DSMeshMatrix"
    },
    {
      "mesh": 0,
      "name": "Sphere002"
    },
    {
      "children": [
        7
      ],
      "matrix": [
        1,
        0,
        0,
        0,
        0,
        1,
        0,
        0,
        0,
        0,
        1,
        0,
        -4.4189052581787109,
        4.2435894012451172,
        0,
        1
      ],
      "name": "Sphere001"
    },
    {
      "children": [
        8
      ],
      "matrix": [
        1,
        0,
        0,
        0,
        0,
        1,
        0,
        0,
        0,
        0,
        1,
        0,
        4.4189052581787109,
        -4.2435894012451172,
        -0,
        1
      ],
      "name": "3DSMeshMatrix"
    },
    {
      "mesh": 1,
      "name": "Sphere001"
    }
  ],
  "samplers": [
    {
      "magFilter": 9729,
      "minFilter": 9987,
      "wrapS": 10497,
      "wrapT": 10497
    }
  ],
  "scene": 0,
  "scenes": [
    {
      "name": "OSG_Scene",
      "nodes": [
        0
      ]
    }
  ],
  "textures": [
    {
      "sampler": 0,
      "source": 0
    },
    {
      "sampler": 0,
      "source": 1
    },
    {
      "sampler": 0,
      "source": 2
    },
    {
      "sampler": 0,
      "source": 3
    }
  ]
}

